<svg id="flower" xmlns="http://www.w3.org/2000/svg" width="23.508" height="23.508" viewBox="0 0 23.508 23.508">
  <circle id="Ellipse_147" data-name="Ellipse 147" cx="2.462" cy="2.462" r="2.462" transform="translate(9.292 9.292)" fill="#5abf7e"/>
  <path id="Path_801" data-name="Path 801" d="M75.45,77.965l2.347.972a3.868,3.868,0,0,1,1.143-1.143l-.972-2.347a4.6,4.6,0,0,0-5.259-2.741A4.6,4.6,0,0,0,75.45,77.965Z" transform="translate(-69.266 -69.264)" fill="#5abf7e"/>
  <path id="Path_802" data-name="Path 802" d="M211.737,7.916a3.839,3.839,0,0,1,.809.087l.971-2.345A4.6,4.6,0,0,0,211.737,0a4.6,4.6,0,0,0-1.78,5.657L210.928,8a3.836,3.836,0,0,1,.809-.087Z" transform="translate(-199.983)" fill="#5abf7e"/>
  <path id="Path_803" data-name="Path 803" d="M302.468,75.45,301.5,77.8a3.867,3.867,0,0,1,1.143,1.143l2.347-.972a4.6,4.6,0,0,0,2.741-5.259A4.6,4.6,0,0,0,302.468,75.45Z" transform="translate(-287.662 -69.266)" fill="#5abf7e"/>
  <path id="Path_804" data-name="Path 804" d="M340.274,209.956l-2.345.971a3.825,3.825,0,0,1,0,1.618l2.345.971a4.6,4.6,0,0,0,5.657-1.78A4.6,4.6,0,0,0,340.274,209.956Z" transform="translate(-322.423 -199.982)" fill="#5abf7e"/>
  <path id="Path_805" data-name="Path 805" d="M304.986,302.468l-2.347-.972a3.867,3.867,0,0,1-1.143,1.143l.972,2.347a4.6,4.6,0,0,0,5.259,2.741A4.6,4.6,0,0,0,304.986,302.468Z" transform="translate(-287.662 -287.662)" fill="#5abf7e"/>
  <path id="Path_806" data-name="Path 806" d="M211.737,338.016a3.838,3.838,0,0,1-.809-.087l-.971,2.345a4.6,4.6,0,0,0,1.78,5.657,4.6,4.6,0,0,0,1.78-5.657l-.971-2.345A3.84,3.84,0,0,1,211.737,338.016Z" transform="translate(-199.983 -322.423)" fill="#5abf7e"/>
  <path id="Path_807" data-name="Path 807" d="M77.966,304.985l.972-2.347a3.868,3.868,0,0,1-1.143-1.143l-2.347.972a4.6,4.6,0,0,0-2.741,5.259A4.6,4.6,0,0,0,77.966,304.985Z" transform="translate(-69.264 -287.661)" fill="#5abf7e"/>
  <path id="Path_808" data-name="Path 808" d="M5.657,213.518,8,212.546a3.825,3.825,0,0,1,0-1.618l-2.345-.971A4.6,4.6,0,0,0,0,211.737a4.6,4.6,0,0,0,5.657,1.78Z" transform="translate(0 -199.983)" fill="#5abf7e"/>
</svg>
