<svg xmlns="http://www.w3.org/2000/svg" width="55.73" height="68.245" viewBox="0 0 55.73 68.245">
  <g id="logs" transform="translate(-46.944)">
    <g id="Group_806" data-name="Group 806" transform="translate(46.944)">
      <g id="Group_805" data-name="Group 805">
        <path id="Path_591" data-name="Path 591" d="M102.2,42.534a2.824,2.824,0,0,0-4.142-.616l-3.738,3.07V5.5a1.327,1.327,0,0,0-.361-.911C92.444,1.57,86.383,0,80.385,0,73.459,0,66.448,2.093,66.448,6.094V18.786l-5.63-5.147a3.212,3.212,0,0,0-4.066-.253,3.174,3.174,0,0,0-.675,4.414l7.633,10.448,2.737,3.813V47.4H51.912c-3.261,0-4.968,5.244-4.968,10.424s1.706,10.424,4.968,10.424H83.65c1.7,0,2.972-1.419,3.806-3.51,2.242-.541,5.381-1.655,6.477-3.778a1.329,1.329,0,0,0,.389-.941V56.366l7.8-10.591A2.832,2.832,0,0,0,102.2,42.534ZM80.385,2.666c6.946,0,10.882,2.054,11.241,3.255a.614.614,0,0,1,.02.079.566.566,0,0,1,.01.1c0,1.164-3.978,3.429-11.271,3.429q-.342,0-.674-.007C73.954,9.4,70.4,7.866,69.4,6.708a1,1,0,0,1-.289-.613C69.114,4.931,73.092,2.666,80.385,2.666ZM53.244,63.754c-.551,1.378-1.136,1.825-1.333,1.825s-.781-.446-1.333-1.825a16.8,16.8,0,0,1-.969-5.934,16.8,16.8,0,0,1,.969-5.934c.551-1.379,1.136-1.825,1.333-1.825s.781.446,1.333,1.825a16.8,16.8,0,0,1,.969,5.934A16.8,16.8,0,0,1,53.244,63.754Zm32.7-5.535c0,.034,0,.068,0,.1,0,.1-.005.2-.009.3,0,.033,0,.067,0,.1q-.007.155-.015.31c0,.026,0,.051,0,.077q-.011.172-.024.343l0,.038a17.839,17.839,0,0,1-.4,2.649l0,.013q-.038.16-.079.315l-.011.041q-.038.142-.078.279l-.016.055c-.026.089-.054.177-.081.263l-.017.053c-.068.208-.14.407-.216.6-.551,1.378-1.136,1.824-1.332,1.824H55.338l.008-.017q.087-.172.169-.352l.013-.028q.087-.193.169-.394l0,0q.081-.2.156-.407l.013-.036q.07-.194.134-.394l.016-.049q.063-.2.122-.4l.014-.049q.06-.211.115-.427l.008-.031q.058-.229.11-.464l.005-.025q.05-.226.1-.457l.009-.05q.042-.221.08-.445l.01-.057q.037-.226.07-.454l.007-.049q.034-.242.063-.486l0-.019q.029-.253.053-.509c0-.011,0-.023,0-.034q.022-.242.039-.486l0-.053q.016-.237.027-.476c0-.018,0-.036,0-.054q.011-.243.017-.487c0-.013,0-.026,0-.039q.006-.261.006-.523t-.006-.523c0-.013,0-.026,0-.039q-.006-.244-.017-.487c0-.018,0-.036,0-.054q-.011-.239-.027-.476c0-.018,0-.035,0-.053q-.017-.244-.039-.486c0-.011,0-.023,0-.034q-.024-.256-.053-.509l0-.019q-.029-.245-.063-.486l-.007-.049q-.033-.229-.07-.454l-.01-.057q-.038-.225-.08-.445l-.009-.05q-.045-.231-.1-.457l-.005-.025q-.052-.235-.11-.464l-.008-.031q-.055-.217-.115-.427l-.014-.049q-.059-.2-.122-.4L56,51.7q-.065-.2-.134-.394l-.013-.036q-.075-.207-.156-.407l0,0q-.081-.2-.169-.394l-.013-.028q-.082-.18-.169-.352l-.008-.017H83.65c.2,0,.781.446,1.333,1.825a16.8,16.8,0,0,1,.969,5.934Q85.952,58.021,85.948,58.219ZM99.979,44.194,91.916,55.138a1.333,1.333,0,0,0-.26.791v3.577c-.013.03-.024.061-.034.092-.2.617-1.316,1.458-3.332,2.131A21.905,21.905,0,0,0,88.6,58.7q.005-.144.009-.288c0-.035,0-.07,0-.1q0-.241,0-.482c0-5.18-1.706-10.424-4.968-10.424H69.114V35.775l1.772,2.468a1.333,1.333,0,1,0,2.166-1.554l-4.029-5.613a1.335,1.335,0,0,0-.165-.3L58.23,16.227a.5.5,0,0,1,.108-.7.551.551,0,0,1,.682.078l7.862,7.188a1.333,1.333,0,0,0,2.232-.984V9.829l.048.027.158.089.081.045.188.1.055.029q.124.063.252.124l.058.027.2.093.087.039.185.08.09.038.208.085.068.027q.141.055.285.109l.036.013.253.091.088.03.212.071.1.031.225.071.08.025q.308.094.628.18l.087.023.236.061.1.026.238.058.091.022.323.073h.006l.34.072.084.017.257.05.107.02.247.045.1.018.3.049.052.009.354.054.082.012.272.038.116.015.25.031.114.014.282.032.079.009.363.037.07.006.292.026.12.01.251.019.124.009.266.017.1.006.367.019.05,0,.317.013.121,0,.252.007.13,0,.257,0,.116,0,.368,0,.368,0,.116,0,.257,0,.13,0,.252-.007.121,0,.317-.013.05,0,.367-.019.1-.006.266-.017.124-.009.251-.019.12-.01.292-.026.071-.006L83.954,12l.079-.009.282-.032.114-.014.25-.031.116-.015.272-.038.082-.012L85.5,11.8l.052-.009.3-.049.1-.018.247-.045.107-.02.257-.05.084-.017.34-.072h.006l.323-.073.091-.022.238-.058.1-.026.236-.061.087-.023q.319-.086.627-.18l.08-.025.225-.071.1-.031.211-.071.089-.031.253-.091.036-.013q.144-.053.285-.109l.068-.027.208-.085.09-.038.185-.08.087-.039.2-.093.058-.027q.128-.061.252-.124l.055-.029.188-.1.081-.045.158-.089.048-.027V47.808a1.333,1.333,0,0,0,2.179,1.03l5.917-4.86a.158.158,0,0,1,.232.035h0A.16.16,0,0,1,99.979,44.194Z" transform="translate(-46.944 0)" fill="#37c56b"/>
      </g>
    </g>
    <g id="Group_808" data-name="Group 808" transform="translate(76.747 4.897)">
      <g id="Group_807" data-name="Group 807">
        <path id="Path_592" data-name="Path 592" d="M281.686,37.391a1.333,1.333,0,0,0-1.825-.471c-2.21,1.3-6.36,1-7.773.773a1.333,1.333,0,0,0-.427,2.631,22.294,22.294,0,0,0,3.284.236,12.826,12.826,0,0,0,6.271-1.345A1.333,1.333,0,0,0,281.686,37.391Z" transform="translate(-270.541 -36.736)" fill="#37c56b"/>
      </g>
    </g>
    <g id="Group_810" data-name="Group 810" transform="translate(84.929 13.089)">
      <g id="Group_809" data-name="Group 809">
        <path id="Path_593" data-name="Path 593" d="M336.366,110.1a8.006,8.006,0,0,0-1.776-2.892V99.536a1.333,1.333,0,0,0-2.666,0v8.246a1.333,1.333,0,0,0,.5,1.044,5.3,5.3,0,0,1,1.42,2.148c.661,1.9.108,4.009-1.644,6.264a1.333,1.333,0,0,0-.28.818v4.191a1.333,1.333,0,0,0,2.666,0V118.5C337.212,114.915,337.015,111.965,336.366,110.1Z" transform="translate(-331.924 -98.203)" fill="#37c56b"/>
      </g>
    </g>
    <g id="Group_812" data-name="Group 812" transform="translate(77.94 21.286)">
      <g id="Group_811" data-name="Group 811">
        <path id="Path_594" data-name="Path 594" d="M283.448,166.162a8.961,8.961,0,0,0-1.29-2.629v-2.505a1.333,1.333,0,0,0-2.666,0v2.959a1.333,1.333,0,0,0,.327.874c.114.132,2.772,3.261.022,6.27a1.333,1.333,0,0,0-.349.9v9.939a1.333,1.333,0,0,0,2.666,0v-9.445A6.713,6.713,0,0,0,283.448,166.162Z" transform="translate(-279.493 -159.695)" fill="#37c56b"/>
      </g>
    </g>
    <g id="Group_814" data-name="Group 814" transform="translate(77.941 15.879)">
      <g id="Group_813" data-name="Group 813">
        <path id="Path_595" data-name="Path 595" d="M282.136,120.2a1.411,1.411,0,0,0-.076-.249,1.349,1.349,0,0,0-.123-.229,1.273,1.273,0,0,0-.165-.2,1.345,1.345,0,0,0-1.2-.365,1.387,1.387,0,0,0-.249.076,1.327,1.327,0,0,0-.432.289,1.286,1.286,0,0,0-.167.2,1.351,1.351,0,0,0-.123.229,1.411,1.411,0,0,0-.076.249,1.331,1.331,0,0,0-.025.261,1.309,1.309,0,0,0,.025.26,1.345,1.345,0,0,0,.076.249,1.41,1.41,0,0,0,.123.23,1.427,1.427,0,0,0,.167.2,1.269,1.269,0,0,0,.2.165,1.353,1.353,0,0,0,.229.123,1.376,1.376,0,0,0,.249.076,1.326,1.326,0,0,0,.261.027,1.343,1.343,0,0,0,.942-.391,1.4,1.4,0,0,0,.165-.2,1.419,1.419,0,0,0,.123-.23,1.35,1.35,0,0,0,.076-.249,1.316,1.316,0,0,0,.027-.26A1.337,1.337,0,0,0,282.136,120.2Z" transform="translate(-279.497 -119.13)" fill="#37c56b"/>
      </g>
    </g>
    <g id="Group_816" data-name="Group 816" transform="translate(57.912 59.435)">
      <g id="Group_815" data-name="Group 815">
        <path id="Path_596" data-name="Path 596" d="M148.454,447.058h-1.206a7.5,7.5,0,0,0-7.952,0h-8.732a1.333,1.333,0,1,0,0,2.666H139.7a1.309,1.309,0,0,0,.778-.251,4.871,4.871,0,0,1,5.566-.01,1.333,1.333,0,0,0,.791.26h1.622a1.333,1.333,0,1,0,0-2.666Z" transform="translate(-129.232 -445.906)" fill="#37c56b"/>
      </g>
    </g>
    <g id="Group_818" data-name="Group 818" transform="translate(81.208 60.586)">
      <g id="Group_817" data-name="Group 817">
        <path id="Path_597" data-name="Path 597" d="M306.646,455.618a1.34,1.34,0,0,0-.076-.249,1.3,1.3,0,0,0-.123-.23,1.272,1.272,0,0,0-.165-.2,1.346,1.346,0,0,0-.2-.165,1.423,1.423,0,0,0-.231-.123,1.34,1.34,0,0,0-.249-.076,1.314,1.314,0,0,0-.521,0,1.341,1.341,0,0,0-.249.076,1.425,1.425,0,0,0-.231.123,1.342,1.342,0,0,0-.2.165,1.273,1.273,0,0,0-.165.2,1.3,1.3,0,0,0-.123.23,1.344,1.344,0,0,0-.076.249,1.312,1.312,0,0,0-.027.26,1.34,1.34,0,0,0,.391.942,1.314,1.314,0,0,0,.433.289,1.336,1.336,0,0,0,.249.076,1.35,1.35,0,0,0,.521,0,1.336,1.336,0,0,0,.249-.076,1.413,1.413,0,0,0,.231-.123,1.433,1.433,0,0,0,.2-.167,1.339,1.339,0,0,0,.389-.942A1.309,1.309,0,0,0,306.646,455.618Z" transform="translate(-304.006 -454.545)" fill="#37c56b"/>
      </g>
    </g>
  </g>
</svg>
