<svg xmlns="http://www.w3.org/2000/svg" width="58.571" height="72.927" viewBox="0 0 58.571 72.927">
  <g id="strategy_1_" data-name="strategy(1)" transform="translate(-50.395)">
    <path id="Path_585" data-name="Path 585" d="M120.867,113.789l-10.057,10.057,3.021,3.021,4.9-4.9v12.077a6.417,6.417,0,0,1-6.41,6.41H90.956A10.818,10.818,0,0,0,80.273,151.28v6.8a6.41,6.41,0,1,0,4.273,0v-6.8a6.54,6.54,0,0,1,6.41-6.552h21.365A10.7,10.7,0,0,0,123,134.045V121.968l4.9,4.9,3.021-3.021Z" transform="translate(-21.958 -97.581)" fill="#37c56b"/>
    <path id="Path_586" data-name="Path 586" d="M333.214,366.395l-4.9,4.9-4.9-4.9-3.021,3.021,4.9,4.9-4.9,4.9,3.021,3.021,4.9-4.9,4.9,4.9,3.021-3.021-4.9-4.9,4.9-4.9Z" transform="translate(-231.542 -314.207)" fill="#37c56b"/>
    <path id="Path_587" data-name="Path 587" d="M173.416,51.235l4.9-4.9,4.9,4.9,3.021-3.021-4.9-4.9,4.9-4.9L183.214,35.4l-4.9,4.9-4.9-4.9-3.021,3.021,4.9,4.9-4.9,4.9Z" transform="translate(-102.908 -30.353)" fill="#37c56b"/>
    <path id="Path_588" data-name="Path 588" d="M63.214,171.235l3.021-3.021-4.9-4.9,4.9-4.9L63.214,155.4l-4.9,4.9-4.9-4.9L50.4,158.416l4.9,4.9-4.9,4.9,3.021,3.021,4.9-4.9Z" transform="translate(0 -133.261)" fill="#37c56b"/>
    <circle id="Ellipse_134" data-name="Ellipse 134" cx="6.41" cy="6.41" r="6.41" transform="translate(92.5)" fill="#37c56b"/>
  </g>
</svg>
